# xmcd
#
# Track frame offsets: 
#        150
#        10980
#        21996
#        34527
#        45221
#        55051
#        66001
#        77965
#        89598
#        101339
#        111932
#        121952
#        133781
#        143611
#        153399
#        164243
#        174078
#        184279
#        196298
#        209230
#        218473
#        229099
#        238499
#        249372
#        260897
#        272824
#
# Disc length: 3787 seconds
#
# Revision: 1
# Processed by: cddbd v1.5.2PL0 Copyright (c) Steve Scherf et al.
# Submitted via: ExactAudioCopy v1.1
#
DISCID=790ec91a
DTITLE=Jean Shepard - 5 Classic Albums Plus_CD1
DYEAR=2015
DGENRE=Country
TTITLE0=A Passing Love Affair
TTITLE1=Shadows On The Wall
TTITLE2=Girls In Disgrace
TTITLE3=Over And Over
TTITLE4=Hello Old Broken Heart
TTITLE5=Tell Me What I Want To Hear
TTITLE6=The Mysteries Of Life
TTITLE7=I'll Thank You All My Life
TTITLE8=Sad Singin' And Slow Ridin'
TTITLE9=Did I Turn Down A Better Deal?
TTITLE10=I Married You For Love
TTITLE11=It's Hard To Tell The Married From The Free
TTITLE12=A Thief In The Night
TTITLE13=I'll Hold You In My Heart
TTITLE14=The Weak And The Strong
TTITLE15=You'd Better Go
TTITLE16=Sweet Temptation
TTITLE17=I'll Never Be Free
TTITLE18=You Win Again
TTITLE19=I Hate Myself
TTITLE20=You're Telling Me Sweet Lies Again
TTITLE21=Memory
TTITLE22=You Can't Break The Chains Of Love
TTITLE23=I Love You Because
TTITLE24=Twice The Loving (In Half The Time)
TTITLE25=Jean Shepard, Ferlin Husky - A Dear John Letter (With Ferlin 
TTITLE25=Husky)
EXTD=
EXTT0=
EXTT1=
EXTT2=
EXTT3=
EXTT4=
EXTT5=
EXTT6=
EXTT7=
EXTT8=
EXTT9=
EXTT10=
EXTT11=
EXTT12=
EXTT13=
EXTT14=
EXTT15=
EXTT16=
EXTT17=
EXTT18=
EXTT19=
EXTT20=
EXTT21=
EXTT22=
EXTT23=
EXTT24=
EXTT25=
PLAYORDER=
